<svg width="30" height="30" viewBox="0 0 30 30" fill="none" xmlns="http://www.w3.org/2000/svg">
<g id="Instagram">
<rect id="Rectangle 3974" width="30" height="30" rx="15" fill="#F3F3F3"/>
<g id="instagram">
<path d="M20.3625 11.4562C20.3625 12.0465 19.884 12.525 19.2937 12.525C18.7035 12.525 18.225 12.0465 18.225 11.4562C18.225 10.866 18.7035 10.3875 19.2937 10.3875C19.884 10.3875 20.3625 10.866 20.3625 11.4562Z" fill="url(#paint0_linear_0_148)"/>
<path fill-rule="evenodd" clip-rule="evenodd" d="M15.375 18.9375C17.3425 18.9375 18.9375 17.3425 18.9375 15.375C18.9375 13.4075 17.3425 11.8125 15.375 11.8125C13.4075 11.8125 11.8125 13.4075 11.8125 15.375C11.8125 17.3425 13.4075 18.9375 15.375 18.9375ZM15.375 17.5125C16.5555 17.5125 17.5125 16.5555 17.5125 15.375C17.5125 14.1945 16.5555 13.2375 15.375 13.2375C14.1945 13.2375 13.2375 14.1945 13.2375 15.375C13.2375 16.5555 14.1945 17.5125 15.375 17.5125Z" fill="url(#paint1_linear_0_148)"/>
<path fill-rule="evenodd" clip-rule="evenodd" d="M8.25 15.09C8.25 12.6958 8.25 11.4987 8.71595 10.5842C9.12581 9.7798 9.7798 9.12581 10.5842 8.71595C11.4987 8.25 12.6958 8.25 15.09 8.25H15.66C18.0542 8.25 19.2513 8.25 20.1658 8.71595C20.9702 9.12581 21.6242 9.7798 22.0341 10.5842C22.5 11.4987 22.5 12.6958 22.5 15.09V15.66C22.5 18.0542 22.5 19.2513 22.0341 20.1658C21.6242 20.9702 20.9702 21.6242 20.1658 22.0341C19.2513 22.5 18.0542 22.5 15.66 22.5H15.09C12.6958 22.5 11.4987 22.5 10.5842 22.0341C9.7798 21.6242 9.12581 20.9702 8.71595 20.1658C8.25 19.2513 8.25 18.0542 8.25 15.66V15.09ZM15.09 9.675H15.66C16.8806 9.675 17.7104 9.67611 18.3518 9.72851C18.9765 9.77955 19.296 9.87207 19.5189 9.98563C20.0551 10.2589 20.4911 10.6949 20.7644 11.2311C20.8779 11.454 20.9704 11.7735 21.0215 12.3982C21.0739 13.0396 21.075 13.8694 21.075 15.09V15.66C21.075 16.8806 21.0739 17.7104 21.0215 18.3518C20.9704 18.9765 20.8779 19.296 20.7644 19.5189C20.4911 20.0551 20.0551 20.4911 19.5189 20.7644C19.296 20.8779 18.9765 20.9704 18.3518 21.0215C17.7104 21.0739 16.8806 21.075 15.66 21.075H15.09C13.8694 21.075 13.0396 21.0739 12.3982 21.0215C11.7735 20.9704 11.454 20.8779 11.2311 20.7644C10.6949 20.4911 10.2589 20.0551 9.98563 19.5189C9.87207 19.296 9.77955 18.9765 9.72851 18.3518C9.67611 17.7104 9.675 16.8806 9.675 15.66V15.09C9.675 13.8694 9.67611 13.0396 9.72851 12.3982C9.77955 11.7735 9.87207 11.454 9.98563 11.2311C10.2589 10.6949 10.6949 10.2589 11.2311 9.98563C11.454 9.87207 11.7735 9.77955 12.3982 9.72851C13.0396 9.67611 13.8694 9.675 15.09 9.675Z" fill="url(#paint2_linear_0_148)"/>
</g>
</g>
<defs>
<linearGradient id="paint0_linear_0_148" x1="15.375" y1="8.25" x2="15.375" y2="22.5" gradientUnits="userSpaceOnUse">
<stop offset="0.0625" stop-color="#D82D7E"/>
<stop offset="1" stop-color="#FBA756"/>
</linearGradient>
<linearGradient id="paint1_linear_0_148" x1="15.375" y1="8.25" x2="15.375" y2="22.5" gradientUnits="userSpaceOnUse">
<stop offset="0.0625" stop-color="#D82D7E"/>
<stop offset="1" stop-color="#FBA756"/>
</linearGradient>
<linearGradient id="paint2_linear_0_148" x1="15.375" y1="8.25" x2="15.375" y2="22.5" gradientUnits="userSpaceOnUse">
<stop offset="0.0625" stop-color="#D82D7E"/>
<stop offset="1" stop-color="#FBA756"/>
</linearGradient>
</defs>
</svg>
