<svg width="30" height="30" viewBox="0 0 30 30" fill="none" xmlns="http://www.w3.org/2000/svg">
<g id="Twitter">
<rect id="Rectangle 3973" width="30" height="30" rx="15" fill="#F3F3F3"/>
<path id="twitter" d="M12.7228 20.25C11.0765 20.25 9.54175 19.8205 8.25 19.0793C9.34674 19.143 11.2822 18.9905 12.4861 17.9604C10.6751 17.8859 9.85835 16.64 9.75182 16.1075C9.90569 16.1608 10.6396 16.2246 11.0539 16.0756C8.97059 15.607 8.651 13.967 8.72202 13.4665C9.11263 13.7115 9.77549 13.7967 10.0359 13.7754C8.09467 12.5294 8.79304 10.6552 9.13631 10.2505C10.5294 11.9818 12.6172 12.9541 15.2001 13.0082C15.1514 12.8166 15.1257 12.6171 15.1257 12.4123C15.1257 10.9419 16.4506 9.75 18.0849 9.75C18.9388 9.75 19.7082 10.0754 20.2483 10.5959C20.819 10.4759 21.6777 10.1951 22.0976 9.95233C21.8859 10.6339 21.2271 11.2024 20.8286 11.4131C20.8254 11.4059 20.8319 11.4203 20.8286 11.4131C21.1787 11.3656 22.1258 11.2024 22.5 10.9746C22.315 11.3575 21.6165 11.9941 21.0433 12.3505C21.1499 16.5695 17.5514 20.25 12.7228 20.25Z" fill="#58A7DE"/>
</g>
</svg>
